<svg version="1.1" id="Layer_1" xmlns="http://www.w3.org/2000/svg" xmlns:xlink="http://www.w3.org/1999/xlink" x="0px" y="0px"
	 width="100%" viewBox="0 0 512 512" enable-background="new 0 0 512 512" xml:space="preserve">
<path fill="#000000" opacity="1.000000" stroke="none" 
	d="
M31.000000,1.000000 
	C181.354233,1.000000 331.708466,1.000000 482.531342,1.467915 
	C482.334015,12.602608 481.697662,23.271338 480.994934,33.935692 
	C480.022858,48.687943 479.030914,63.439022 477.991272,78.186646 
	C477.033447,91.773613 475.982880,105.354027 475.007172,118.939766 
	C473.983826,133.188568 473.009613,147.440903 471.997772,161.690521 
	C471.009460,175.608582 469.996216,189.524872 469.002167,203.442520 
	C467.996216,217.526016 466.995697,231.609924 466.001556,245.694260 
	C464.995758,259.944366 464.005341,274.195557 462.999481,288.445648 
	C462.005371,302.529938 461.004822,316.613770 459.998932,330.697235 
	C459.004883,344.614899 457.996155,358.531555 457.002106,372.449219 
	C455.996246,386.532684 454.948822,400.613434 454.016235,414.701782 
	C453.245300,426.348053 452.615295,438.003662 451.926361,449.596466 
	C440.311249,453.397736 428.900085,457.125610 417.493225,460.866638 
	C390.232056,469.807190 362.958832,478.711243 335.717651,487.712311 
	C315.630371,494.349609 295.568970,501.066589 275.536224,507.866364 
	C271.268372,509.315002 267.174194,511.275391 263.000000,513.000000 
	C259.969879,513.000000 256.939758,513.000000 253.345825,512.637085 
	C245.651810,509.868561 238.534622,507.423645 231.389053,505.064606 
	C207.034256,497.024139 182.675446,488.995819 158.307022,480.996765 
	C126.230148,470.467377 94.142708,459.970123 62.530319,449.613190 
	C61.333000,434.997650 60.112480,420.767303 59.016285,406.527435 
	C57.945301,392.615051 56.982883,378.694153 56.006454,364.774628 
	C54.983494,350.191772 54.017639,335.604950 52.993847,321.022125 
	C52.361759,312.018829 51.648960,303.021271 51.006413,294.018677 
	C49.989346,279.768738 48.928776,265.521362 48.022179,251.264297 
	C47.248951,239.104675 46.683376,226.931946 45.991837,214.766953 
	C45.702702,209.680710 45.370548,204.595978 44.979927,199.516586 
	C43.672272,182.512650 42.289104,165.514450 41.021107,148.507614 
	C40.555862,142.267578 40.467907,135.998688 39.970142,129.761917 
	C38.719028,114.086021 37.293377,98.424110 36.014957,82.750290 
	C35.267754,73.589355 34.569019,64.422249 34.024494,55.247475 
	C32.951523,37.168831 32.001106,19.082911 31.000000,1.000000 
M350.500000,136.000000 
	C366.269226,136.000000 382.038483,136.000000 397.819153,136.000000 
	C399.287872,115.722412 400.716614,95.996750 402.146698,76.252350 
	C305.014679,76.252350 208.603989,76.252350 111.839386,76.252350 
	C112.576965,83.664444 113.433060,90.792999 113.967453,97.945587 
	C115.069199,112.691948 116.059708,127.447372 116.981087,142.206238 
	C117.740402,154.369247 118.319916,166.543396 119.007896,178.710968 
	C119.304939,183.964432 119.610733,189.218796 120.023003,194.464066 
	C121.320511,210.972443 122.714661,227.473312 123.983055,243.983871 
	C124.720284,253.580215 125.288239,263.189545 125.954567,273.124084 
	C193.949188,273.124084 261.362549,273.124084 329.213318,273.124084 
	C328.451202,281.328918 327.564850,289.117950 327.035736,296.931213 
	C325.924377,313.343689 324.916840,329.764648 324.084503,346.193146 
	C323.949524,348.858002 323.375244,350.188354 320.688660,351.057129 
	C300.399841,357.618073 280.175934,364.379639 259.894287,370.963196 
	C258.408905,371.445374 256.501862,371.430878 255.007294,370.960083 
	C237.270737,365.372864 219.566925,359.680969 201.872131,353.962036 
	C190.250793,350.206085 190.147705,350.167114 190.075439,337.533966 
	C190.055527,334.052124 188.998154,332.903717 185.483704,332.933990 
	C168.488007,333.080505 151.490356,332.995392 134.493408,333.008667 
	C133.111679,333.009735 131.730057,333.132782 130.593674,333.187378 
	C131.744034,351.764099 132.935959,369.975647 133.939102,388.197601 
	C134.112823,391.352936 134.781052,393.008820 138.238403,394.153259 
	C177.040909,406.997620 215.753250,420.114227 254.512314,433.090454 
	C255.921921,433.562378 257.722900,433.825897 259.072327,433.377106 
	C298.320129,420.324677 337.539978,407.187927 376.724579,393.947144 
	C378.027100,393.507019 379.649963,391.972473 379.864410,390.730652 
	C380.558899,386.708710 380.696075,382.587524 380.993835,378.500610 
	C382.007935,364.581055 383.007965,350.660431 383.996185,336.739014 
	C385.007935,322.485962 386.071381,308.236023 386.977936,293.976166 
	C387.751160,281.814178 388.311859,269.638763 389.011017,257.471832 
	C389.312653,252.221909 389.676636,246.974380 390.099823,241.732819 
	C390.861755,232.295609 391.689575,222.863739 392.527771,212.982925 
	C321.501587,212.982925 251.429169,212.982925 180.993729,212.982925 
	C179.193756,187.172699 177.418640,161.718796 175.625046,136.000000 
	C234.227463,136.000000 291.863739,136.000000 350.500000,136.000000 
z"/>
<path fill="#FFFFFF" opacity="1.000000" stroke="none" 
	d="
M30.531343,1.000000 
	C32.001106,19.082911 32.951523,37.168831 34.024494,55.247475 
	C34.569019,64.422249 35.267754,73.589355 36.014957,82.750290 
	C37.293377,98.424110 38.719028,114.086021 39.970142,129.761917 
	C40.467907,135.998688 40.555862,142.267578 41.021107,148.507614 
	C42.289104,165.514450 43.672272,182.512650 44.979927,199.516586 
	C45.370548,204.595978 45.702702,209.680710 45.991837,214.766953 
	C46.683376,226.931946 47.248951,239.104675 48.022179,251.264297 
	C48.928776,265.521362 49.989346,279.768738 51.006413,294.018677 
	C51.648960,303.021271 52.361759,312.018829 52.993847,321.022125 
	C54.017639,335.604950 54.983494,350.191772 56.006454,364.774628 
	C56.982883,378.694153 57.945301,392.615051 59.016285,406.527435 
	C60.112480,420.767303 61.333000,434.997650 62.530319,449.613190 
	C94.142708,459.970123 126.230148,470.467377 158.307022,480.996765 
	C182.675446,488.995819 207.034256,497.024139 231.389053,505.064606 
	C238.534622,507.423645 245.651810,509.868561 252.891006,512.637085 
	C169.046295,513.000000 85.092606,513.000000 1.069454,513.000000 
	C1.069454,342.333344 1.069454,171.666672 1.074022,1.000005 
	C10.739955,1.000000 20.401320,1.000000 30.531343,1.000000 
z"/>
<path fill="#FFFFFF" opacity="1.000000" stroke="none" 
	d="
M263.468658,513.000000 
	C267.174194,511.275391 271.268372,509.315002 275.536224,507.866364 
	C295.568970,501.066589 315.630371,494.349609 335.717651,487.712311 
	C362.958832,478.711243 390.232056,469.807190 417.493225,460.866638 
	C428.900085,457.125610 440.311249,453.397736 451.926361,449.596466 
	C452.615295,438.003662 453.245300,426.348053 454.016235,414.701782 
	C454.948822,400.613434 455.996246,386.532684 457.002106,372.449219 
	C457.996155,358.531555 459.004883,344.614899 459.998932,330.697235 
	C461.004822,316.613770 462.005371,302.529938 462.999481,288.445648 
	C464.005341,274.195557 464.995758,259.944366 466.001556,245.694260 
	C466.995697,231.609924 467.996216,217.526016 469.002167,203.442520 
	C469.996216,189.524872 471.009460,175.608582 471.997772,161.690521 
	C473.009613,147.440903 473.983826,133.188568 475.007172,118.939766 
	C475.982880,105.354027 477.033447,91.773613 477.991272,78.186646 
	C479.030914,63.439022 480.022858,48.687943 480.994934,33.935692 
	C481.697662,23.271338 482.334015,12.602608 483.000000,1.467915 
	C492.994476,1.000000 502.988922,1.000000 512.987549,1.000000 
	C512.991699,171.566849 512.991699,342.133698 512.991699,513.000000 
	C429.979340,513.000000 346.958344,513.000000 263.468658,513.000000 
z"/>
<path fill="#FFFFFF" opacity="1.000000" stroke="none" 
	d="
M350.000000,136.000000 
	C291.863739,136.000000 234.227463,136.000000 175.625046,136.000000 
	C177.418640,161.718796 179.193756,187.172699 180.993729,212.982925 
	C251.429169,212.982925 321.501587,212.982925 392.527771,212.982925 
	C391.689575,222.863739 390.861755,232.295609 390.099823,241.732819 
	C389.676636,246.974380 389.312653,252.221909 389.011017,257.471832 
	C388.311859,269.638763 387.751160,281.814178 386.977936,293.976166 
	C386.071381,308.236023 385.007935,322.485962 383.996185,336.739014 
	C383.007965,350.660431 382.007935,364.581055 380.993835,378.500610 
	C380.696075,382.587524 380.558899,386.708710 379.864410,390.730652 
	C379.649963,391.972473 378.027100,393.507019 376.724579,393.947144 
	C337.539978,407.187927 298.320129,420.324677 259.072327,433.377106 
	C257.722900,433.825897 255.921921,433.562378 254.512314,433.090454 
	C215.753250,420.114227 177.040909,406.997620 138.238403,394.153259 
	C134.781052,393.008820 134.112823,391.352936 133.939102,388.197601 
	C132.935959,369.975647 131.744034,351.764099 130.593674,333.187378 
	C131.730057,333.132782 133.111679,333.009735 134.493408,333.008667 
	C151.490356,332.995392 168.488007,333.080505 185.483704,332.933990 
	C188.998154,332.903717 190.055527,334.052124 190.075439,337.533966 
	C190.147705,350.167114 190.250793,350.206085 201.872131,353.962036 
	C219.566925,359.680969 237.270737,365.372864 255.007294,370.960083 
	C256.501862,371.430878 258.408905,371.445374 259.894287,370.963196 
	C280.175934,364.379639 300.399841,357.618073 320.688660,351.057129 
	C323.375244,350.188354 323.949524,348.858002 324.084503,346.193146 
	C324.916840,329.764648 325.924377,313.343689 327.035736,296.931213 
	C327.564850,289.117950 328.451202,281.328918 329.213318,273.124084 
	C261.362549,273.124084 193.949188,273.124084 125.954567,273.124084 
	C125.288239,263.189545 124.720284,253.580215 123.983055,243.983871 
	C122.714661,227.473312 121.320511,210.972443 120.023003,194.464066 
	C119.610733,189.218796 119.304939,183.964432 119.007896,178.710968 
	C118.319916,166.543396 117.740402,154.369247 116.981087,142.206238 
	C116.059708,127.447372 115.069199,112.691948 113.967453,97.945587 
	C113.433060,90.792999 112.576965,83.664444 111.839386,76.252350 
	C208.603989,76.252350 305.014679,76.252350 402.146698,76.252350 
	C400.716614,95.996750 399.287872,115.722412 397.819153,136.000000 
	C382.038483,136.000000 366.269226,136.000000 350.000000,136.000000 
z"/>
</svg>