<?xml version="1.0" standalone="no"?>
<!DOCTYPE svg PUBLIC "-//W3C//DTD SVG 20010904//EN"
 "http://www.w3.org/TR/2001/REC-SVG-20010904/DTD/svg10.dtd">
<svg version="1.0" xmlns="http://www.w3.org/2000/svg"
 width="512.000000pt" height="512.000000pt" viewBox="0 0 512.000000 512.000000"
 preserveAspectRatio="xMidYMid meet">

<g transform="translate(0.000000,512.000000) scale(0.100000,-0.100000)"
fill="#000000" stroke="none">
<path d="M2413 5105 c-71 -19 -155 -63 -231 -120 -181 -136 -365 -448 -477
-806 l-26 -86 -132 28 c-192 41 -322 52 -514 46 -196 -6 -294 -26 -418 -87
-224 -109 -323 -276 -312 -525 11 -262 167 -576 444 -891 48 -56 52 -63 36
-75 -34 -28 -186 -204 -254 -295 -225 -300 -321 -585 -269 -805 52 -220 245
-374 552 -441 88 -19 134 -22 313 -22 210 -1 322 11 494 50 35 8 67 11 72 7 4
-4 17 -42 29 -83 54 -182 168 -437 259 -576 222 -344 513 -491 776 -393 265
98 485 393 643 859 l46 136 110 -23 c203 -42 355 -56 540 -50 129 3 191 10
251 26 236 62 401 207 459 400 25 85 21 237 -9 357 -48 190 -198 454 -384 676
l-89 106 30 29 c16 15 67 71 112 123 274 317 406 584 407 825 1 105 -13 168
-53 249 -154 308 -643 429 -1258 310 -68 -13 -127 -20 -131 -16 -3 4 -19 48
-34 97 -82 270 -222 544 -366 714 -177 211 -415 310 -616 256z m234 -320 c159
-73 330 -346 463 -744 l29 -85 -182 -62 c-100 -33 -223 -78 -274 -98 l-92 -38
-103 47 c-125 58 -280 120 -408 165 -52 18 -99 37 -104 41 -14 12 71 248 140
390 93 191 171 299 262 361 91 63 168 69 269 23z m-1457 -915 c123 -11 389
-57 404 -71 5 -4 -1 -60 -13 -129 -25 -140 -60 -400 -61 -447 0 -36 -3 -39
-160 -149 -52 -37 -151 -112 -219 -167 l-125 -100 -20 25 c-12 14 -48 58 -82
99 -135 163 -264 391 -299 529 -25 97 -18 206 17 255 57 81 173 137 318 154
106 12 112 12 240 1z m3090 -95 c204 -47 290 -131 290 -281 0 -90 -20 -155
-82 -276 -57 -109 -151 -239 -282 -387 l-89 -101 -37 32 c-21 18 -89 77 -152
132 -62 54 -163 136 -223 182 l-111 84 -18 142 c-9 79 -30 209 -45 290 l-27
147 85 15 c85 15 208 32 286 40 90 9 332 -3 405 -19z m-2222 -116 c75 -28 143
-55 151 -59 9 -5 -34 -32 -125 -80 -77 -41 -161 -86 -188 -102 -27 -16 -50
-27 -53 -25 -4 5 8 89 33 230 12 63 20 87 31 87 8 0 76 -23 151 -51z m1179
-125 c12 -65 21 -124 20 -131 -1 -8 -283 149 -305 171 -5 6 240 85 253 82 6
-1 20 -56 32 -122z m-548 -161 c146 -78 352 -200 498 -296 l121 -79 9 -97 c4
-53 8 -250 8 -438 0 -291 -2 -345 -15 -357 -31 -31 -334 -201 -547 -307 l-223
-111 -142 78 c-180 98 -288 163 -454 272 l-132 87 -6 80 c-13 182 -18 441 -11
618 l7 188 42 26 c127 81 287 170 495 275 129 65 237 118 239 118 3 0 53 -26
111 -57z m-1195 -1002 c-4 -5 -119 89 -202 166 l-64 58 129 102 128 102 6
-212 c3 -117 4 -214 3 -216z m2252 285 c168 -144 166 -116 17 -234 l-128 -101
-2 32 c-6 83 -7 397 -2 397 4 0 55 -42 115 -94z m-2659 -337 c84 -78 257 -221
369 -306 l72 -54 7 -67 c8 -84 49 -344 69 -437 8 -38 13 -71 12 -72 -9 -10
-257 -45 -384 -55 -345 -27 -593 42 -660 186 -27 56 -29 158 -6 237 30 102
122 262 226 394 41 52 211 245 215 245 2 0 38 -32 80 -71z m3085 -86 c158
-187 296 -425 333 -572 19 -73 21 -174 5 -215 -54 -144 -276 -221 -563 -196
-133 11 -407 57 -421 70 -5 5 -2 43 7 92 22 110 55 345 64 443 l6 77 65 47
c120 85 336 249 382 290 25 22 48 40 51 41 3 0 35 -35 71 -77z m-2142 -602
c69 -41 129 -77 134 -82 4 -4 -49 -26 -119 -49 -70 -22 -130 -39 -133 -36 -5
6 -51 230 -52 254 0 15 -10 20 170 -87z m1240 23 c-6 -38 -18 -109 -26 -158
l-16 -88 -28 6 c-16 3 -90 29 -166 57 -96 37 -133 55 -123 61 49 30 365 196
367 193 1 -1 -2 -33 -8 -71z m-612 -350 c141 -63 373 -155 441 -175 23 -7 45
-18 47 -24 8 -20 -76 -248 -141 -383 -137 -284 -270 -417 -415 -416 -104 0
-200 63 -300 195 -102 136 -175 285 -260 529 l-47 134 171 58 c94 31 214 75
266 97 52 21 99 40 103 40 5 1 65 -24 135 -55z"/>
<path d="M2420 3021 c-80 -26 -118 -48 -177 -103 -95 -90 -147 -198 -159 -327
-12 -130 32 -254 128 -356 153 -164 402 -202 591 -92 63 37 151 137 185 210
53 111 64 210 37 326 -39 164 -179 301 -352 346 -76 20 -185 18 -253 -4z m218
-302 c119 -58 134 -223 28 -304 -138 -105 -334 46 -272 209 39 102 144 143
244 95z"/>
</g>
</svg>
